<svg xmlns="http://www.w3.org/2000/svg" width="400" height="400" viewBox="0 0 400 400">
<defs><linearGradient id="metal" x1="0" y1="0" x2="1" y2="1"><stop stop-color="{{metal}}" stop-opacity=".85"/><stop offset=".45" stop-color="{{metal}}" stop-opacity=".25"/><stop offset="1" stop-color="{{metal}}" stop-opacity=".7"/></linearGradient>
<g id="spoke"><path d="M194 91 L194 48 Q190 41 192 28 Q194 18 200 15 Q206 18 208 28 Q210 41 206 48 L206 91Z" fill="url(#metal)" stroke="{{metal}}" stroke-width="1.8"/><path d="M197 84 L197 50 M197 37 L197 27" stroke="{{metal}}" stroke-opacity=".8" stroke-width="1"/><path d="M195 95 L195 178 L205 178 L205 95" fill="url(#metal)" stroke="{{metal}}" stroke-width="1.5"/><path d="M190 61H210 M190 67H210" stroke="{{metal}}" stroke-width="2"/></g></defs>
<use href="#spoke" transform="rotate(0 200 200)"/>
<use href="#spoke" transform="rotate(45 200 200)"/>
<use href="#spoke" transform="rotate(90 200 200)"/>
<use href="#spoke" transform="rotate(135 200 200)"/>
<use href="#spoke" transform="rotate(180 200 200)"/>
<use href="#spoke" transform="rotate(225 200 200)"/>
<use href="#spoke" transform="rotate(270 200 200)"/>
<use href="#spoke" transform="rotate(315 200 200)"/>
<circle cx="200" cy="200" r="139" fill="none" stroke="{{metal}}" stroke-width="2"/>
<circle cx="200" cy="200" r="132" fill="none" stroke="url(#metal)" stroke-width="11"/>
<circle cx="200" cy="200" r="126" fill="none" stroke="{{metal}}" stroke-width="1.4"/>
<circle cx="200" cy="200" r="19" fill="url(#metal)" stroke="{{metal}}" stroke-width="2"/></svg>